<mxfile host="app.diagrams.net" agent="Mozilla/5.0 (Windows NT 10.0; Win64; x64; rv:134.0) Gecko/20100101 Firefox/134.0" version="26.0.6">
  <diagram name="Página-1" id="LJuWngmndOlVt-vWoyig">
    <mxGraphModel dx="1194" dy="716" grid="1" gridSize="10" guides="1" tooltips="1" connect="1" arrows="1" fold="1" page="1" pageScale="1" pageWidth="827" pageHeight="1169" math="0" shadow="0">
      <root>
        <mxCell id="0" />
        <mxCell id="1" parent="0" />
        <mxCell id="T4hX0TNzIoTkRcbmY5cP-1" value="&lt;span style=&quot;color: light-dark(rgb(0, 0, 0), rgb(51, 51, 255));&quot;&gt;&lt;span style=&quot;color: light-dark(rgb(0, 0, 0), rgb(126, 166, 224));&quot;&gt;239.255.1.1 &lt;/span&gt;&lt;/span&gt;= &lt;span style=&quot;color: light-dark(rgb(0, 0, 0), rgb(255, 0, 255));&quot;&gt;&lt;span style=&quot;color: light-dark(rgb(0, 0, 0), rgb(255, 51, 153));&quot;&gt;11101111 .&lt;/span&gt;&lt;/span&gt;&lt;span style=&quot;color: light-dark(rgb(0, 0, 0), rgb(0, 204, 0));&quot;&gt;1&lt;/span&gt;&lt;span style=&quot;color: light-dark(rgb(0, 0, 0), rgb(255, 0, 255));&quot;&gt;&lt;span style=&quot;color: light-dark(rgb(0, 0, 0), rgb(255, 51, 153));&quot;&gt;1111111 . 00000001 . 000000001 &lt;/span&gt;&lt;/span&gt;" style="text;html=1;whiteSpace=wrap;overflow=hidden;rounded=0;fontFamily=Helvetica;fontStyle=1;fontSize=16;" vertex="1" parent="1">
          <mxGeometry x="200" y="310" width="440" height="30" as="geometry" />
        </mxCell>
        <mxCell id="T4hX0TNzIoTkRcbmY5cP-2" value="" style="shape=curlyBracket;whiteSpace=wrap;html=1;rounded=1;labelPosition=left;verticalLabelPosition=middle;align=right;verticalAlign=middle;hachureGap=4;fontFamily=Architects Daughter;fontSource=https%3A%2F%2Ffonts.googleapis.com%2Fcss%3Ffamily%3DArchitects%2BDaughter;rotation=-90;strokeWidth=3;" vertex="1" parent="1">
          <mxGeometry x="232.5" y="322.5" width="20" height="85" as="geometry" />
        </mxCell>
        <mxCell id="T4hX0TNzIoTkRcbmY5cP-3" value="" style="shape=curlyBracket;whiteSpace=wrap;html=1;rounded=1;labelPosition=left;verticalLabelPosition=middle;align=right;verticalAlign=middle;hachureGap=4;fontFamily=Architects Daughter;fontSource=https%3A%2F%2Ffonts.googleapis.com%2Fcss%3Ffamily%3DArchitects%2BDaughter;rotation=-90;strokeWidth=3;" vertex="1" parent="1">
          <mxGeometry x="461.25" y="201.25" width="20" height="327.5" as="geometry" />
        </mxCell>
        <mxCell id="T4hX0TNzIoTkRcbmY5cP-4" value="&lt;div&gt;Endereço IP&lt;/div&gt;&lt;div&gt;( DECIMAL)&lt;br&gt;&lt;/div&gt;" style="text;html=1;whiteSpace=wrap;overflow=hidden;rounded=0;fontFamily=Helvetica;fontSize=16;fontStyle=1" vertex="1" parent="1">
          <mxGeometry x="192.5" y="407.5" width="100" height="52.5" as="geometry" />
        </mxCell>
        <mxCell id="T4hX0TNzIoTkRcbmY5cP-6" value="&lt;div&gt;Endereço IP&lt;/div&gt;&lt;div&gt;( BINÁRIO)&lt;br&gt;&lt;/div&gt;" style="text;html=1;whiteSpace=wrap;overflow=hidden;rounded=0;fontFamily=Helvetica;fontSize=16;fontStyle=1" vertex="1" parent="1">
          <mxGeometry x="421.25" y="407.5" width="100" height="52.5" as="geometry" />
        </mxCell>
        <mxCell id="T4hX0TNzIoTkRcbmY5cP-7" value="" style="shape=curlyBracket;whiteSpace=wrap;html=1;rounded=1;labelPosition=left;verticalLabelPosition=middle;align=right;verticalAlign=middle;hachureGap=4;fontFamily=Architects Daughter;fontSource=https%3A%2F%2Ffonts.googleapis.com%2Fcss%3Ffamily%3DArchitects%2BDaughter;rotation=90;strokeWidth=3;" vertex="1" parent="1">
          <mxGeometry x="508.75" y="158.75" width="20" height="242.5" as="geometry" />
        </mxCell>
        <mxCell id="T4hX0TNzIoTkRcbmY5cP-8" value="23 Bits menos significantes" style="text;html=1;whiteSpace=wrap;overflow=hidden;rounded=0;fontFamily=Helvetica;fontSize=16;fontStyle=1" vertex="1" parent="1">
          <mxGeometry x="414" y="230" width="228.75" height="52.5" as="geometry" />
        </mxCell>
        <mxCell id="T4hX0TNzIoTkRcbmY5cP-12" value="" style="endArrow=classic;html=1;rounded=0;hachureGap=4;fontFamily=Architects Daughter;fontSource=https%3A%2F%2Ffonts.googleapis.com%2Fcss%3Ffamily%3DArchitects%2BDaughter;fillColor=#008a00;strokeColor=#005700;strokeWidth=5;" edge="1" parent="1">
          <mxGeometry width="50" height="50" relative="1" as="geometry">
            <mxPoint x="380" y="310" as="sourcePoint" />
            <mxPoint x="380" y="210" as="targetPoint" />
          </mxGeometry>
        </mxCell>
        <mxCell id="T4hX0TNzIoTkRcbmY5cP-14" value="25 º Bit = Setar em 0" style="text;html=1;whiteSpace=wrap;overflow=hidden;rounded=0;fontFamily=Helvetica;fontSize=15;fontStyle=1" vertex="1" parent="1">
          <mxGeometry x="301.25" y="170" width="180" height="30" as="geometry" />
        </mxCell>
      </root>
    </mxGraphModel>
  </diagram>
</mxfile>
